# xmcd
#
# Track frame offsets:
#	300
#	22456
#	31494
#	54789
#	69305
#	79207
#	96572
#	113471
#	128292
#	156698
#	171728
#	188374
#	204728
#	226331
#	242190
#	254879
#	270539
#	285552
#	310819
#	330171
#	342740
#
# Disc length: 4794 seconds
#
# Revision: 0
# Processed by: cddbd v1.5.2PL0 Copyright (c) Steve Scherf et al.
# Submitted via: audiograbber 1.83.01
#
DISCID=3812b615
DTITLE=Various Artist - Bluesnews Collection Vol. 6
DYEAR=1900
DGENRE=
TTITLE0=Walt´s Blues Box - Drivin´Home
TTITLE1=Kuddel Renner And His Amazing Blues Orchestra - Lay Down
TTITLE2=Harp Mitch and The Bluescasters - Walk With Me Baby
TTITLE3=Cajun Roosters - Horse With No Shoes
TTITLE4=3 Dayz Whizkey - 3 Dayz Whizkey
TTITLE5=Feelin´Good Bluesband - Walkin´The Dog
TTITLE6=Bluesgangsters - Bloody Lips
TTITLE7=Dieter Kropp - Zentrale Tanzschaffe
TTITLE8=Herr Markus and die Veteranen - Moment
TTITLE9=strongT - Life Change
TTITLE10=Schwarzbrenner - Sturm
TTITLE11=Pascal Geiser - First Time I Felt The Blues
TTITLE12=Crazy Hambones - Got A Hole In The Roll
TTITLE13=Doc Nice and Muddy Feet - Snake Dance
TTITLE14=McEbel- One Man Bluesband - Some Outside Help
TTITLE15=It´s M. E. - Dirty Girl
TTITLE16=Frank Born with Professor Bottleneck and The Juke Kings - That´s It
TTITLE17=Lanko - Mean Devil Blues
TTITLE18=Chicago Line - 24 Hours
TTITLE19=Red Bananas Blues Band - Laisse Moi
TTITLE20=X Point fest. Bernd Dahlmanns - Desperado
EXTD=
EXTT0=
EXTT1=
EXTT2=
EXTT3=
EXTT4=
EXTT5=
EXTT6=
EXTT7=
EXTT8=
EXTT9=
EXTT10=
EXTT11=
EXTT12=
EXTT13=
EXTT14=
EXTT15=
EXTT16=
EXTT17=
EXTT18=
EXTT19=
EXTT20=
PLAYORDER=
